<svg id="svg" version="1.1" xmlns="http://www.w3.org/2000/svg" xmlns:xlink="http://www.w3.org/1999/xlink" width="400" height="196.51590218954772" viewBox="0, 0, 400,196.51590218954772"><g id="svgg"><path id="path0" d="M38.006 47.458 C 37.888 47.710,37.584 48.404,37.331 49.000 C 37.079 49.596,35.693 52.783,34.253 56.083 C 31.582 62.206,27.018 72.687,25.000 77.333 C 24.383 78.754,23.110 81.679,22.170 83.833 C 17.654 94.191,16.313 97.268,13.420 103.917 C 11.704 107.858,10.053 111.646,9.750 112.333 C 8.831 114.416,0.130 134.401,0.044 134.625 C -0.019 134.790,1.372 134.833,6.658 134.833 L 13.352 134.833 13.746 133.958 C 13.964 133.477,14.792 131.583,15.588 129.750 C 16.384 127.917,17.935 124.354,19.035 121.833 C 20.135 119.313,21.524 116.125,22.120 114.750 C 22.717 113.375,23.453 111.688,23.755 111.000 C 24.058 110.313,24.956 108.250,25.752 106.417 C 27.296 102.858,28.199 100.784,29.999 96.667 C 30.620 95.246,31.617 92.958,32.215 91.583 C 32.813 90.208,34.202 87.021,35.301 84.500 C 36.400 81.979,38.213 77.817,39.329 75.250 C 40.445 72.683,41.869 69.421,42.492 68.000 C 43.115 66.579,43.906 64.760,44.249 63.958 C 44.592 63.156,44.920 62.502,44.978 62.505 C 45.036 62.508,46.225 65.151,47.619 68.380 C 49.014 71.608,51.254 76.762,52.596 79.833 C 53.938 82.904,55.357 86.167,55.750 87.083 C 56.143 88.000,57.529 91.188,58.831 94.167 C 60.132 97.146,62.323 102.171,63.700 105.333 C 65.076 108.496,66.841 112.546,67.620 114.333 C 68.400 116.121,69.936 119.646,71.034 122.167 C 72.131 124.688,73.823 128.569,74.793 130.792 L 76.556 134.833 83.288 134.833 C 86.990 134.833,89.983 134.774,89.938 134.701 C 89.893 134.628,88.945 132.472,87.831 129.909 C 86.717 127.347,85.559 124.688,85.256 124.000 C 84.473 122.219,83.390 119.733,80.502 113.083 C 79.108 109.875,77.719 106.688,77.413 106.000 C 77.108 105.313,75.735 102.162,74.362 99.000 C 72.990 95.837,70.687 90.550,69.246 87.250 C 67.805 83.950,66.419 80.762,66.165 80.167 C 65.911 79.571,64.639 76.646,63.338 73.667 C 62.038 70.688,60.010 66.037,58.833 63.333 C 57.656 60.629,56.233 57.367,55.672 56.083 C 55.111 54.800,53.999 52.233,53.201 50.379 L 51.750 47.008 44.985 47.004 L 38.220 47.000 38.006 47.458 M82.000 53.333 L 82.000 59.667 92.000 59.667 L 102.000 59.667 102.000 97.250 L 102.000 134.833 108.667 134.833 L 115.333 134.833 115.333 97.250 L 115.333 59.667 125.333 59.667 L 135.333 59.667 135.333 53.333 L 135.333 47.000 108.667 47.000 L 82.000 47.000 82.000 53.333 M291.693 49.854 C 291.430 50.438,288.457 56.992,285.087 64.417 C 273.042 90.953,263.490 112.015,260.748 118.083 C 259.215 121.475,257.412 125.450,256.741 126.917 C 256.071 128.383,254.806 131.158,253.931 133.083 L 252.339 136.583 255.628 136.623 C 257.437 136.645,260.939 136.608,263.412 136.540 L 267.907 136.417 268.521 135.000 C 268.859 134.221,270.049 131.483,271.166 128.917 C 272.283 126.350,273.687 123.125,274.285 121.750 C 274.883 120.375,275.521 118.912,275.703 118.500 C 275.885 118.087,276.505 116.662,277.082 115.333 C 277.659 114.004,278.672 111.679,279.332 110.167 C 280.929 106.513,284.245 98.899,284.923 97.333 C 285.220 96.646,286.117 94.583,286.916 92.750 C 287.715 90.917,288.858 88.292,289.455 86.917 C 296.208 71.380,297.898 67.502,298.404 66.375 L 298.947 65.167 299.155 65.625 C 299.270 65.877,300.566 68.933,302.035 72.417 C 303.504 75.900,305.230 79.987,305.870 81.500 C 306.510 83.012,307.633 85.675,308.366 87.417 C 309.099 89.158,310.620 92.758,311.746 95.417 C 312.872 98.075,314.410 101.712,315.163 103.500 C 317.154 108.223,323.939 124.295,325.786 128.667 C 326.658 130.729,327.654 133.092,327.999 133.917 C 328.344 134.742,328.787 135.782,328.982 136.228 L 329.338 137.040 337.628 136.919 C 342.187 136.853,345.984 136.736,346.066 136.659 C 346.152 136.578,345.702 135.403,345.001 133.884 C 344.334 132.435,342.607 128.662,341.163 125.500 C 339.720 122.337,337.134 116.675,335.416 112.917 C 333.699 109.158,330.736 102.671,328.833 98.500 C 326.929 94.329,325.094 90.317,324.755 89.583 C 324.416 88.850,323.026 85.813,321.667 82.833 C 320.309 79.854,317.346 73.367,315.084 68.417 C 312.822 63.467,309.957 57.189,308.717 54.466 L 306.463 49.515 305.773 49.430 C 305.394 49.383,303.133 49.267,300.750 49.172 C 298.367 49.077,295.462 48.952,294.294 48.895 L 292.172 48.791 291.693 49.854 M352.667 91.833 L 352.667 134.833 353.417 134.833 C 354.163 134.833,354.167 134.836,354.167 135.417 L 354.167 136.000 377.083 136.000 L 400.000 136.000 400.000 129.750 L 400.000 123.500 383.000 123.500 L 366.000 123.500 366.000 86.167 L 366.000 48.833 359.333 48.833 L 352.667 48.833 352.667 91.833 " stroke="none" fill="#344c9c" fill-rule="evenodd"></path><path id="path1" d="M204.089 1.458 C 204.171 2.845,204.563 13.450,204.750 19.333 C 204.798 20.846,204.874 22.796,204.920 23.667 C 204.965 24.537,205.115 28.550,205.253 32.583 C 205.391 36.617,205.536 40.517,205.575 41.250 C 205.614 41.983,205.651 43.165,205.657 43.875 L 205.667 45.167 209.875 45.166 L 214.083 45.166 214.468 43.397 C 215.976 36.459,218.554 32.221,221.662 31.573 C 224.971 30.883,226.936 32.466,230.054 38.333 C 230.468 39.112,231.303 40.612,231.909 41.667 C 243.818 62.374,246.508 82.675,239.318 97.589 C 225.969 125.277,183.936 130.353,168.293 106.167 C 164.608 100.468,162.768 94.051,162.425 85.700 L 162.341 83.649 161.587 82.265 L 160.832 80.881 161.245 77.065 C 161.473 74.967,161.702 72.800,161.755 72.250 C 161.808 71.700,161.922 70.652,162.009 69.921 C 162.263 67.785,162.229 67.615,161.747 68.583 L 161.332 69.417 161.412 68.083 C 161.457 67.350,161.541 65.550,161.599 64.083 C 161.658 62.617,161.764 61.042,161.836 60.583 C 162.050 59.215,162.019 59.236,160.786 61.294 C 159.756 63.013,159.291 64.143,158.405 67.083 C 157.684 69.475,157.628 69.559,156.844 69.419 C 155.775 69.227,155.555 68.386,156.167 66.833 C 156.601 65.733,156.623 65.809,155.697 65.268 C 154.896 64.800,154.893 64.794,154.665 63.524 C 154.280 61.379,154.407 60.876,155.899 58.649 C 156.799 57.304,156.833 57.213,156.826 56.168 L 156.819 55.083 156.020 54.468 L 155.221 53.852 154.029 54.230 C 152.624 54.675,152.710 54.609,152.586 55.338 C 152.532 55.656,152.343 56.742,152.167 57.750 C 151.991 58.758,151.759 60.363,151.651 61.316 C 151.414 63.431,151.757 63.923,148.785 57.209 C 148.491 56.544,148.208 56.000,148.158 56.000 C 148.053 56.000,146.413 66.145,146.163 68.333 C 144.280 84.837,147.242 99.601,154.652 110.642 C 155.567 112.006,155.711 112.212,156.250 112.923 C 169.800 130.805,194.267 138.237,218.417 131.806 C 230.458 128.600,240.396 122.133,248.264 112.387 C 258.892 99.221,261.906 78.997,256.426 57.628 C 252.312 41.590,240.385 27.211,230.044 25.823 C 229.332 25.727,228.244 25.566,227.625 25.464 C 224.765 24.995,221.302 26.365,218.473 29.085 C 216.967 30.532,215.626 31.667,215.420 31.667 C 215.349 31.667,215.340 30.973,215.400 30.125 C 215.778 24.825,216.388 17.074,216.432 17.022 C 216.460 16.989,217.143 17.190,217.950 17.470 C 218.757 17.750,221.142 18.577,223.250 19.308 C 225.358 20.039,228.171 21.025,229.500 21.498 C 230.829 21.971,232.442 22.535,233.083 22.751 C 233.725 22.967,235.104 23.449,236.147 23.822 C 237.190 24.195,238.097 24.500,238.163 24.500 C 238.276 24.500,239.204 23.765,244.310 19.634 C 246.369 17.968,246.489 17.839,246.154 17.660 C 245.956 17.554,244.659 16.996,243.272 16.420 C 241.885 15.843,238.162 14.286,235.000 12.958 C 231.838 11.630,227.188 9.679,224.667 8.622 C 222.146 7.566,217.908 5.784,215.250 4.663 C 212.592 3.542,210.004 2.455,209.500 2.247 C 207.139 1.277,205.684 0.670,204.945 0.350 C 204.501 0.157,204.109 0.000,204.071 0.000 C 204.034 0.000,204.042 0.656,204.089 1.458 M151.462 47.458 C 149.961 48.388,150.357 52.326,151.891 51.737 C 152.294 51.582,153.158 49.705,153.273 48.735 C 153.425 47.447,152.514 46.805,151.462 47.458 M161.417 53.421 C 161.050 53.554,160.734 53.663,160.714 53.664 C 160.313 53.692,160.384 54.432,160.849 55.080 L 161.379 55.819 161.945 55.201 C 163.463 53.545,163.232 52.767,161.417 53.421 M257.333 144.524 C 243.783 145.922,233.238 153.264,233.527 161.097 C 233.729 166.533,237.275 168.464,247.583 168.750 C 251.786 168.867,252.488 168.940,252.617 169.278 C 252.751 169.627,252.461 169.773,251.178 170.004 C 236.190 172.706,225.454 181.394,226.983 189.583 C 228.252 196.379,237.424 198.329,250.107 194.499 C 260.425 191.383,265.153 186.682,265.164 179.528 L 265.167 178.140 264.208 178.910 C 256.299 185.268,249.949 188.207,242.714 188.858 C 230.016 190.000,230.370 182.635,243.333 175.969 C 247.782 173.682,250.925 172.705,257.166 171.669 C 260.732 171.078,262.956 169.144,262.900 166.683 C 262.867 165.222,262.626 165.181,253.083 164.993 C 245.058 164.835,244.337 164.801,242.333 164.485 C 238.156 163.825,237.449 162.436,240.072 160.040 C 245.393 155.176,258.166 151.464,263.111 153.344 L 263.546 153.509 262.565 154.269 C 260.659 155.744,260.309 156.067,259.520 157.070 C 258.531 158.327,258.306 158.697,258.763 158.317 C 259.463 157.733,262.378 156.083,264.667 154.974 C 270.666 152.068,270.000 152.807,270.000 149.054 C 270.000 145.770,269.925 145.491,268.908 145.013 C 267.506 144.354,261.456 144.098,257.333 144.524 M49.156 146.740 C 45.966 147.620,39.123 153.770,30.333 163.658 C 29.646 164.432,28.708 165.481,28.250 165.991 C 27.792 166.500,25.504 169.159,23.167 171.899 C 13.064 183.741,14.840 182.224,10.947 182.341 C 7.603 182.442,7.393 182.494,5.701 183.644 C 3.539 185.112,0.987 188.786,0.713 190.825 C 0.562 191.950,1.422 191.951,6.000 190.828 C 7.513 190.458,9.162 190.074,9.667 189.975 C 11.548 189.608,14.960 190.124,20.917 191.678 C 35.193 195.401,35.889 195.534,37.377 194.834 C 39.123 194.012,43.668 190.082,43.667 189.396 C 43.667 188.932,42.897 188.607,39.250 187.526 C 37.692 187.065,35.329 186.303,34.000 185.834 C 29.437 184.222,27.083 183.551,24.083 183.005 C 20.946 182.433,19.833 182.156,19.834 181.945 C 19.835 181.723,22.242 178.642,24.141 176.433 C 26.428 173.771,28.382 171.521,28.917 170.932 C 29.008 170.831,29.646 170.112,30.333 169.333 C 31.021 168.555,31.658 167.836,31.750 167.735 C 36.549 162.456,37.446 161.552,40.571 158.853 C 44.399 155.546,44.500 155.462,44.500 155.574 C 44.500 155.775,43.628 157.277,43.032 158.103 C 36.467 167.201,34.762 170.749,35.516 173.744 L 35.699 174.469 38.058 173.301 C 41.763 171.465,44.500 169.167,44.500 167.891 C 44.500 167.688,45.053 166.448,45.730 165.136 C 52.008 152.955,53.066 150.544,52.665 149.328 C 52.419 148.584,51.464 147.356,50.740 146.854 C 50.162 146.453,50.187 146.455,49.156 146.740 M354.929 157.403 C 353.460 158.023,350.762 161.053,350.254 162.655 C 350.152 162.976,350.018 163.000,348.312 163.000 C 343.823 163.000,342.277 163.704,340.405 166.598 C 339.242 168.396,338.698 169.497,338.566 170.320 C 338.443 171.092,338.459 171.099,339.599 170.746 C 340.572 170.445,344.161 170.220,344.548 170.437 C 344.778 170.565,344.601 170.892,343.387 172.586 C 339.209 178.415,336.471 181.175,331.896 184.168 C 327.107 187.301,326.912 183.144,331.582 177.514 C 332.453 176.465,334.128 174.532,334.556 174.083 C 335.434 173.162,335.673 172.395,335.493 171.077 C 335.276 169.489,334.582 167.860,334.068 167.731 C 332.152 167.250,325.592 172.410,319.742 179.000 C 316.787 182.327,316.358 182.730,315.938 182.569 C 314.675 182.084,316.468 178.822,320.273 174.682 C 322.953 171.766,323.250 170.922,321.879 170.121 C 320.346 169.226,318.250 169.951,316.377 172.022 C 314.251 174.374,311.000 179.399,311.000 180.334 C 311.000 181.104,306.404 184.645,303.750 185.920 C 299.388 188.015,296.536 186.984,296.219 183.198 L 296.119 182.002 297.351 181.464 C 306.536 177.448,311.396 172.916,310.762 168.954 C 309.642 161.952,293.892 170.422,290.996 179.584 C 290.313 181.747,287.273 183.463,286.009 182.399 C 285.061 181.601,285.057 181.448,285.958 180.202 C 290.345 174.136,291.597 167.769,288.222 168.694 C 285.830 169.350,280.500 177.514,280.500 180.522 C 280.500 181.248,275.519 185.816,274.047 186.440 C 272.188 187.227,271.511 185.895,272.174 182.753 L 272.552 180.959 274.569 178.938 C 278.425 175.074,280.952 170.578,279.847 169.549 C 278.428 168.227,275.901 168.622,274.137 170.441 C 267.289 177.506,265.733 184.916,269.973 190.279 C 272.326 193.257,274.466 192.624,279.812 187.369 L 282.508 184.719 283.377 185.135 C 285.168 185.992,287.218 185.619,289.383 184.042 C 290.333 183.350,290.390 183.385,290.452 184.690 C 290.917 194.453,299.572 195.007,308.371 185.838 C 310.737 183.372,310.833 183.317,310.833 184.418 C 310.833 186.080,311.855 188.966,312.751 189.835 C 313.949 190.995,314.491 190.607,317.962 186.106 C 320.378 182.973,321.131 182.095,323.283 179.903 C 325.309 177.839,329.078 174.912,328.041 176.208 C 327.240 177.208,323.414 184.181,322.805 185.750 C 321.904 188.070,322.444 191.085,323.869 191.685 C 326.165 192.654,328.150 191.362,335.917 183.842 C 337.108 182.688,338.409 181.445,338.807 181.080 L 339.531 180.417 339.254 181.083 C 336.693 187.259,336.474 190.673,338.540 192.221 C 341.068 194.115,345.045 192.108,351.518 185.672 L 353.786 183.417 354.049 184.716 C 354.608 187.479,356.381 189.994,358.451 190.964 C 361.034 192.174,363.718 191.174,367.084 187.746 L 368.586 186.218 370.103 186.131 C 371.884 186.029,372.901 185.575,374.708 184.075 L 375.796 183.173 375.995 184.545 C 376.325 186.817,377.671 188.806,379.840 190.229 C 384.196 193.085,388.647 191.494,396.542 184.259 L 398.000 182.923 398.000 181.795 C 398.000 180.435,398.082 180.445,396.612 181.629 C 392.068 185.287,389.845 186.302,386.625 186.189 C 385.731 186.157,385.813 186.038,387.622 184.753 C 393.775 180.379,395.802 175.687,394.102 169.750 C 393.327 167.041,393.163 166.198,393.208 165.164 C 393.261 163.932,393.115 163.784,391.764 163.698 C 389.853 163.576,388.000 165.432,388.000 167.468 C 388.000 167.784,386.622 169.320,380.572 175.748 C 379.190 177.216,377.617 178.892,377.075 179.473 C 373.445 183.366,369.928 184.233,371.644 180.813 C 374.046 176.022,374.339 171.555,372.312 170.624 C 371.580 170.288,371.536 170.236,371.772 169.976 C 373.502 168.064,370.437 166.308,366.833 167.146 C 361.775 168.324,354.988 175.089,353.982 179.957 L 353.781 180.930 351.599 182.605 C 345.549 187.250,343.405 187.499,343.426 183.555 C 343.441 180.860,344.443 178.266,347.459 173.124 L 348.902 170.665 350.743 170.784 C 351.755 170.850,352.804 170.906,353.073 170.910 C 353.708 170.919,358.690 163.968,358.317 163.595 C 358.280 163.558,357.546 163.449,356.687 163.353 C 355.827 163.257,355.084 163.139,355.035 163.091 C 354.987 163.043,355.700 162.009,356.619 160.793 C 357.539 159.578,358.374 158.422,358.476 158.224 C 359.034 157.143,356.783 156.622,354.929 157.403 M100.453 159.365 C 94.143 162.789,84.428 176.591,83.224 183.846 C 82.197 190.026,83.976 194.595,87.488 194.798 C 90.262 194.959,95.936 191.620,98.292 188.441 C 98.814 187.736,98.868 185.480,98.353 185.855 C 91.998 190.485,89.255 190.948,88.519 187.515 C 87.914 184.696,88.186 184.084,91.583 180.627 C 95.561 176.578,98.000 173.841,98.000 173.427 C 98.000 173.388,98.288 172.920,98.641 172.387 C 102.131 167.103,104.447 160.491,103.266 159.184 C 102.777 158.644,101.649 158.716,100.453 159.365 M108.750 160.479 C 106.813 160.990,105.233 162.380,104.159 164.515 C 103.433 165.960,103.415 165.908,104.688 166.078 C 105.409 166.174,105.467 166.154,105.564 165.768 C 105.621 165.541,105.986 165.097,106.375 164.782 C 108.302 163.224,110.341 163.604,112.843 165.989 C 116.849 169.808,121.910 169.140,124.126 164.500 C 124.946 162.782,124.949 162.724,124.213 162.594 C 123.867 162.532,123.465 162.448,123.320 162.405 C 123.155 162.358,122.985 162.483,122.869 162.739 C 122.229 164.144,120.363 165.362,119.049 165.233 C 118.039 165.134,117.527 164.842,115.583 163.254 C 112.314 160.582,110.755 159.949,108.750 160.479 M80.367 164.188 C 77.875 165.422,76.280 169.139,77.654 170.513 C 79.365 172.224,83.232 169.090,83.470 165.798 C 83.597 164.048,82.158 163.302,80.367 164.188 M98.442 165.958 C 98.398 166.119,98.270 166.662,98.158 167.167 C 97.395 170.588,91.902 177.868,91.531 175.950 C 91.419 175.377,92.342 173.743,95.283 169.307 C 97.233 166.365,98.781 164.724,98.442 165.958 M200.667 166.457 C 195.545 167.219,188.416 172.846,186.002 178.033 C 183.648 183.090,184.874 189.696,188.534 191.681 C 192.574 193.872,198.382 191.078,204.543 183.982 L 205.500 182.880 205.500 181.765 L 205.500 180.650 204.125 181.795 C 195.994 188.566,190.447 188.819,190.651 182.408 C 190.666 181.930,190.751 181.865,192.042 181.344 C 196.019 179.738,200.161 177.183,202.362 174.977 C 206.794 170.536,205.830 165.688,200.667 166.457 M200.133 170.367 C 201.621 171.855,196.364 177.435,191.604 179.419 L 190.959 179.688 191.072 179.053 C 191.337 177.555,193.254 174.483,194.699 173.239 C 197.293 171.005,199.569 169.802,200.133 170.367 M305.678 170.339 C 307.480 171.304,302.672 176.730,297.977 179.031 C 296.440 179.784,296.451 179.786,296.682 178.907 C 297.670 175.143,303.780 169.324,305.678 170.339 M368.872 171.875 C 368.277 172.606,366.585 176.074,366.062 177.632 C 365.493 179.327,365.352 181.662,365.731 183.107 C 365.879 183.671,366.000 184.167,366.000 184.211 C 366.000 184.796,362.057 186.670,360.861 186.654 C 358.135 186.617,357.653 185.595,358.565 181.788 C 359.362 178.461,360.999 176.725,366.833 173.019 C 369.094 171.583,369.121 171.568,368.872 171.875 M388.160 173.542 C 388.280 174.573,388.405 175.567,388.439 175.750 C 389.061 179.142,387.958 182.175,385.535 183.736 C 383.935 184.766,383.820 184.782,383.393 184.039 C 382.340 182.207,381.302 181.302,379.707 180.825 L 378.998 180.613 383.374 176.158 C 385.781 173.708,387.793 171.695,387.846 171.685 C 387.898 171.675,388.039 172.510,388.160 173.542 M157.947 172.908 C 157.060 173.224,156.756 173.544,155.969 174.989 C 155.164 176.468,152.845 178.859,149.006 182.171 C 147.680 183.314,145.998 184.820,145.269 185.517 L 143.942 186.784 144.130 187.916 C 144.749 191.651,148.847 195.100,152.458 194.924 C 155.399 194.781,161.982 191.083,164.718 188.038 C 165.192 187.510,165.064 186.008,164.583 186.453 C 162.076 188.771,157.085 191.111,155.598 190.666 L 154.923 190.463 155.354 190.107 C 161.193 185.273,162.216 183.120,161.350 177.500 C 160.659 173.020,160.027 172.167,157.947 172.908 M59.167 173.143 C 50.332 175.638,44.697 183.354,46.793 190.085 C 48.693 196.185,53.745 196.594,60.500 191.196 C 63.876 188.498,64.333 187.919,64.333 186.337 L 64.333 185.323 62.625 186.641 C 59.588 188.983,57.264 190.167,55.702 190.167 C 53.659 190.167,51.833 188.781,51.833 187.231 C 51.833 186.335,51.538 186.537,57.200 183.561 C 65.676 179.108,67.232 170.865,59.167 173.143 M136.833 173.227 C 126.658 176.290,121.376 185.846,126.029 192.775 C 128.672 196.711,134.740 195.154,141.115 188.904 L 142.167 187.873 142.167 186.666 C 142.167 185.725,142.121 185.495,141.958 185.623 C 136.109 190.209,133.059 191.172,130.765 189.157 C 128.887 187.509,129.294 186.622,132.750 184.820 C 134.033 184.151,135.526 183.364,136.067 183.071 C 143.952 178.801,144.567 170.900,136.833 173.227 M111.826 173.315 C 108.525 174.206,104.167 177.434,101.987 180.603 C 100.434 182.860,99.729 186.778,100.391 189.472 C 102.007 196.050,107.695 196.845,113.922 191.364 C 114.500 190.855,114.956 190.641,116.118 190.337 C 118.678 189.666,119.936 188.894,122.015 186.715 L 123.254 185.417 123.194 184.543 L 123.135 183.670 121.733 184.918 C 117.641 188.559,116.389 188.419,117.802 184.478 C 119.346 180.173,119.436 177.626,118.080 176.592 C 117.556 176.193,117.500 176.070,117.500 175.331 C 117.500 173.316,115.048 172.445,111.826 173.315 M75.152 173.322 C 72.954 173.751,67.296 181.333,66.250 185.250 C 65.526 187.962,66.665 192.110,68.602 193.815 C 71.682 196.526,75.176 195.589,79.083 191.004 C 81.932 187.661,83.176 184.828,81.302 185.953 C 80.999 186.135,79.693 186.928,78.402 187.715 C 73.296 190.825,71.348 190.571,71.337 186.795 C 71.332 184.903,71.595 184.391,73.338 182.912 C 74.144 182.229,75.051 181.351,75.355 180.960 C 75.659 180.570,75.957 180.213,76.016 180.167 C 76.263 179.976,77.655 177.681,78.048 176.818 C 79.376 173.896,78.378 172.691,75.152 173.322 M60.136 176.381 C 60.354 177.514,57.805 180.303,54.784 182.235 C 52.975 183.393,52.404 183.172,53.187 181.618 C 54.601 178.815,59.844 174.863,60.136 176.381 M138.000 176.527 C 138.000 178.142,132.848 183.000,131.135 183.000 C 129.504 183.000,133.179 178.267,136.000 176.734 C 137.554 175.890,138.000 175.844,138.000 176.527 M113.000 178.736 C 113.000 178.957,112.627 180.157,112.172 181.403 C 111.295 183.800,111.000 185.384,111.000 187.695 C 111.000 189.501,109.440 190.875,107.119 191.115 C 104.088 191.428,103.553 189.011,105.672 184.572 C 106.894 182.012,113.000 177.149,113.000 178.736 M155.830 179.958 C 156.124 180.583,156.244 183.531,156.022 184.716 C 155.698 186.451,154.688 187.916,153.224 188.774 L 152.481 189.209 151.554 188.570 C 148.134 186.215,148.104 185.800,151.136 182.828 C 154.397 179.633,155.389 179.026,155.830 179.958 " stroke="none" fill="#ec3434" fill-rule="evenodd"></path><path id="path2" d="M145.548 78.083 C 145.549 78.542,145.581 78.709,145.620 78.456 C 145.658 78.203,145.657 77.828,145.617 77.623 C 145.578 77.418,145.546 77.625,145.548 78.083 M123.217 184.333 C 123.217 184.838,123.248 185.044,123.286 184.792 C 123.324 184.540,123.324 184.127,123.286 183.875 C 123.248 183.623,123.217 183.829,123.217 184.333 " stroke="none" fill="#ec343c" fill-rule="evenodd"></path><path id="path3" d="" stroke="none" fill="#5c40a0" fill-rule="evenodd"></path><path id="path4" d="" stroke="none" fill="#f04034" fill-rule="evenodd"></path></g></svg>